<?xml version="1.0" encoding="UTF-8" standalone="no"?>
<!-- Created with Inkscape (http://www.inkscape.org/) -->

<svg
   width="28.497259mm"
   height="28.27799mm"
   viewBox="0 0 28.497259 28.27799"
   version="1.1"
   id="svg1"
   xml:space="preserve"
   xmlns:inkscape="http://www.inkscape.org/namespaces/inkscape"
   xmlns:sodipodi="http://sodipodi.sourceforge.net/DTD/sodipodi-0.dtd"
   xmlns="http://www.w3.org/2000/svg"
   xmlns:svg="http://www.w3.org/2000/svg"><sodipodi:namedview
     id="namedview1"
     pagecolor="#ffffff"
     bordercolor="#000000"
     borderopacity="0.25"
     inkscape:showpageshadow="2"
     inkscape:pageopacity="0.0"
     inkscape:pagecheckerboard="0"
     inkscape:deskcolor="#d1d1d1"
     inkscape:document-units="mm" /><defs
     id="defs1" /><g
     inkscape:label="Calque 1"
     inkscape:groupmode="layer"
     id="layer1"
     transform="translate(-507.64198,-305.0985)"><path
       d="m 520.94698,333.14177 c -1.07325,-0.4323 -1.3646,-1.27953 -1.45329,-4.22608 l -9.09913,-1.18349 c -0.92666,-0.17165 -2.06209,-1.24622 -2.47691,-2.34414 -0.16653,-0.44077 -0.27905,-2.9791 -0.27561,-6.21772 0.005,-4.82913 0.0657,-5.60487 0.51516,-6.59496 0.35294,-0.77753 0.80142,-1.26136 1.46055,-1.57568 l 9.90399,-1.59044 -0.0373,-2.833 0.82696,-0.73888 c 0.58826,-0.52562 1.10847,-0.73888 1.80232,-0.73888 0.91968,0 1.33409,0.35758 7.2587,6.26341 3.45583,3.44488 6.42181,6.59773 6.59105,7.00633 0.16925,0.40859 0.2263,1.07264 0.12678,1.47564 -0.20012,0.81039 -11.67227,12.5417 -12.89659,13.18793 -0.80245,0.42356 -1.39606,0.45262 -2.24667,0.10999 z"
       style="fill:#ffffff"
       id="path1-6"
       inkscape:export-filename="arrow.svg"
       inkscape:export-xdpi="96"
       inkscape:export-ydpi="96" /></g></svg>
