<?xml version="1.0" encoding="UTF-8" standalone="no"?>
<!-- Created with Inkscape (http://www.inkscape.org/) -->

<svg
   width="396.78165mm"
   height="21.741568mm"
   viewBox="0 0 396.78165 21.741568"
   version="1.1"
   id="svg1"
   xml:space="preserve"
   xmlns:inkscape="http://www.inkscape.org/namespaces/inkscape"
   xmlns:sodipodi="http://sodipodi.sourceforge.net/DTD/sodipodi-0.dtd"
   xmlns="http://www.w3.org/2000/svg"
   xmlns:svg="http://www.w3.org/2000/svg"><sodipodi:namedview
     id="namedview1"
     pagecolor="#ffffff"
     bordercolor="#000000"
     borderopacity="0.25"
     inkscape:showpageshadow="2"
     inkscape:pageopacity="0.0"
     inkscape:pagecheckerboard="0"
     inkscape:deskcolor="#d1d1d1"
     inkscape:document-units="mm" /><defs
     id="defs1" /><g
     inkscape:label="Calque 1"
     inkscape:groupmode="layer"
     id="layer1"
     transform="translate(600.31257,-1834.0123)"><path
       d="m -578.58413,1855.2227 c -1.04789,-0.2746 -2.22866,-0.6688 -2.62392,-0.8759 -0.63682,-0.3336 -0.87859,-0.3203 -2.12302,0.1171 -1.9394,0.6816 -5.66292,0.6736 -7.70978,-0.017 -5.96793,-2.0125 -9.79434,-7.4501 -9.21368,-13.0931 0.56888,-5.5287 5.76445,-8.8922 10.23576,-6.6264 3.32077,1.6827 3.95492,6.1065 1.21965,8.5081 -1.13067,0.9928 -2.84508,1.3485 -4.25541,0.8831 -1.79947,-0.5939 -2.89965,-2.7273 -2.36812,-4.5921 0.1874,-0.6575 0.40499,-0.8604 0.99587,-0.9286 l 0.75607,-0.087 -0.17538,1.3221 c -0.15365,1.1583 -0.0961,1.4142 0.4642,2.0657 0.93635,1.0885 2.50618,1.0516 3.64356,-0.086 1.70465,-1.7046 1.17557,-4.4552 -1.09574,-5.6963 -1.2868,-0.7032 -3.56949,-0.5465 -4.88064,0.335 -4.69107,3.1541 -3.59236,11.1423 2.04739,14.8857 2.28813,1.5188 4.40455,2.1065 7.12568,1.9787 1.26944,-0.06 2.38661,-0.187 2.48261,-0.283 0.096,-0.096 -0.19347,-0.5937 -0.64328,-1.106 -3.26336,-3.7167 0.31744,-8.7442 4.34735,-6.1037 1.50953,0.9891 1.88151,4.2063 0.68124,5.8919 -0.31736,0.4457 -0.57702,0.9242 -0.57702,1.0633 0,0.1392 0.68461,0.4777 1.52136,0.7523 1.47182,0.483 3.63142,0.5015 66.32882,0.5687 l 64.80747,0.069 -1.09791,-0.9398 c -0.65646,-0.5619 -1.44675,-1.6483 -1.96545,-2.702 -0.75264,-1.5288 -0.86631,-2.0266 -0.85832,-3.7592 0.006,-1.1962 0.19826,-2.5538 0.48067,-3.3856 0.69734,-2.054 2.46201,-4.2717 4.2468,-5.3371 1.29104,-0.7706 1.82188,-0.9226 3.579,-1.0243 4.89242,-0.2832 8.21527,2.4632 8.21283,6.788 -10e-4,1.8707 -0.41005,2.8549 -1.81192,4.3601 -1.7315,1.8592 -4.89716,2.5745 -6.91435,1.5624 -1.81035,-0.9082 -2.66869,-3.815 -1.7603,-5.9612 0.45832,-1.0828 1.31472,-1.8503 1.93202,-1.7314 0.74846,0.1441 0.7264,0.9395 -0.0517,1.8642 -0.61311,0.7286 -0.69315,1.0202 -0.58606,2.1347 0.17935,1.8666 0.84122,2.4374 2.8261,2.4374 1.34326,0 1.69437,-0.1117 2.57234,-0.8183 1.58365,-1.2746 2.20737,-2.3657 2.20737,-3.8616 0,-3.0874 -2.55641,-5.2517 -6.18483,-5.2362 -5.03755,0.022 -8.73329,6.4586 -6.42128,11.1842 1.70404,3.4829 5.68036,5.1569 9.58242,4.034 2.03083,-0.5844 4.43533,-1.8008 5.93411,-3.002 0.65484,-0.5249 3.09562,-2.8788 5.42395,-5.2309 4.55737,-4.604 6.54331,-6.1184 9.65458,-7.3622 1.73134,-0.6921 2.32763,-0.796 4.63293,-0.8069 2.37208,-0.011 2.80079,0.063 4.14356,0.723 2.04681,1.0054 3.55493,2.5495 4.5381,4.6464 1.441,3.0734 1.03128,6.6359 -1.08507,9.4346 -3.42024,4.5231 -10.48598,4.6137 -12.81042,0.1642 -1.47746,-2.8282 -0.78662,-6.2856 1.54375,-7.7258 2.76126,-1.7066 7.2626,0.2288 7.34662,3.1587 0.0242,0.8447 -0.0495,0.9634 -0.59912,0.9634 -0.4811,0 -0.69628,-0.2131 -0.92604,-0.9169 -0.41312,-1.2655 -1.7576,-2.1258 -3.32227,-2.1258 -2.03135,0 -3.19474,1.2807 -3.19474,3.5171 0,4.9562 6.68781,6.4982 10.31444,2.3781 2.68682,-3.0524 2.5135,-7.6017 -0.40061,-10.5159 -2.18859,-2.1885 -5.12223,-2.7452 -8.64323,-1.64 -3.24201,1.0176 -5.11337,2.3775 -9.86956,7.172 -4.84594,4.885 -6.39722,6.181 -8.91756,7.4502 -3.63378,1.83 2.26182,1.6941 -72.82813,1.6781 -65.78023,-0.014 -68.07091,-0.031 -69.91375,-0.514 z m -2.42389,-4.4944 c 0.69487,-1.3002 0.63688,-2.5299 -0.15673,-3.3235 -1.57414,-1.5741 -3.84651,0.038 -3.04464,2.1599 0.40858,1.0812 1.6025,2.2532 2.20268,2.1622 0.2783,-0.042 0.72771,-0.4916 0.99869,-0.9986 z m 189.12193,4.6611 c -2.60601,-0.7026 -4.44228,-2.2596 -5.81432,-4.9298 -0.45485,-0.8853 -0.64006,-1.7675 -0.72205,-3.4396 -0.14226,-2.9011 0.48101,-4.6825 2.35624,-6.7343 3.88464,-4.2504 10.27681,-4.0077 16.38435,0.622 0.95396,0.7232 3.02474,2.6622 4.60173,4.3089 5.48441,5.7269 8.59487,7.9373 12.23167,8.6923 5.20557,1.0807 9.73026,-2.3736 9.71681,-7.4181 -0.0114,-4.2604 -3.37517,-7.9375 -7.26121,-7.9375 -2.22406,0 -4.66938,1.2944 -5.47921,2.9003 -0.86203,1.7095 -0.80091,3.3511 0.17491,4.6982 1.24897,1.7241 2.29384,2.3234 4.05107,2.3234 1.93954,0 2.6064,-0.5837 2.78451,-2.4374 0.1071,-1.1145 0.0271,-1.4061 -0.58605,-2.1347 -0.77811,-0.9247 -0.80018,-1.7201 -0.0517,-1.8642 0.57404,-0.1106 1.40375,0.5905 1.95078,1.6484 0.56255,1.0878 0.36045,3.8809 -0.35102,4.8512 -1.33598,1.8219 -4.28288,2.2122 -6.61296,0.8758 -2.4401,-1.3995 -3.54233,-3.196 -3.54233,-5.7735 0,-4.1417 3.58773,-6.9634 8.41332,-6.617 2.13061,0.153 3.62574,0.8546 5.22172,2.4506 2.05907,2.0591 3.26475,5.4233 2.9366,8.1941 -0.21907,1.8497 -1.55245,4.4286 -2.87514,5.5607 l -1.09794,0.9398 64.41061,-0.069 c 62.30763,-0.067 64.46028,-0.086 65.93197,-0.5687 0.83674,-0.2746 1.52135,-0.6131 1.52135,-0.7523 0,-0.1391 -0.25966,-0.6176 -0.57702,-1.0633 -1.20027,-1.6856 -0.82829,-4.9028 0.68124,-5.8919 4.02992,-2.6405 7.61071,2.387 4.34735,6.1037 -0.4498,0.5123 -0.73928,1.01 -0.64328,1.106 0.096,0.096 1.21318,0.2234 2.48261,0.283 1.87379,0.088 2.62896,-10e-5 4.01357,-0.4683 4.28913,-1.4504 7.21709,-4.7063 7.99209,-8.8872 0.54097,-2.9185 -0.62964,-6.0279 -2.82491,-7.5036 -2.06914,-1.391 -5.27173,-0.8418 -6.50092,1.1148 -0.8028,1.2778 -0.57468,3.1497 0.51687,4.2412 1.13737,1.1374 2.70721,1.1743 3.64356,0.086 0.56034,-0.6515 0.61785,-0.9074 0.46419,-2.0657 l -0.17538,-1.3221 0.75607,0.087 c 0.59089,0.068 0.80847,0.2711 0.99587,0.9286 0.53154,1.8648 -0.56865,3.9982 -2.36812,4.5921 -1.41033,0.4654 -3.12473,0.1097 -4.25541,-0.8831 -2.73527,-2.4016 -2.10111,-6.8254 1.21966,-8.5081 4.47131,-2.2658 9.66687,1.0977 10.23576,6.6264 0.56946,5.5343 -3.13033,10.9514 -8.86147,12.9745 -2.28547,0.8068 -5.97515,0.8686 -8.06199,0.1352 -1.24138,-0.4363 -1.48729,-0.4502 -2.11891,-0.1192 -0.39301,0.2059 -1.62258,0.6066 -2.7324,0.8904 -1.9749,0.5051 -3.45458,0.5161 -69.52098,0.5161 -74.51193,0 -68.69763,0.1358 -72.3105,-1.6891 -2.44186,-1.2335 -3.17927,-1.8523 -8.79755,-7.383 -5.00206,-4.9241 -6.53868,-6.0867 -9.35153,-7.0753 -3.67225,-1.2907 -6.52851,-0.8877 -8.91491,1.2579 -1.84031,1.6546 -2.62964,3.3492 -2.63305,5.653 -0.006,4.1141 3.20446,7.4722 7.14116,7.4693 2.83841,0 4.76038,-1.6348 4.9753,-4.2265 0.21452,-2.5868 -0.91769,-4.0604 -3.11977,-4.0604 -1.57994,0 -2.88337,0.8328 -3.31279,2.1166 -0.23969,0.7166 -0.45401,0.9261 -0.9476,0.9261 -0.56235,0 -0.63458,-0.1141 -0.61022,-0.9634 0.0594,-2.0719 2.23649,-3.75 4.86716,-3.7515 3.03452,0 4.79558,1.9191 4.79558,5.2306 0,3.0985 -1.59355,5.202 -4.62231,6.1015 -1.57086,0.4665 -2.52347,0.4739 -4.16071,0.032 z m 171.27007,-4.3345 c 0.865,-0.9068 1.32332,-2.0787 1.10011,-2.8131 -0.48156,-1.5843 -2.02602,-1.9734 -3.19462,-0.8048 -0.57549,0.5755 -0.66189,0.8561 -0.55512,1.8034 0.14894,1.3214 0.87222,2.5421 1.50626,2.5421 0.24708,0 0.7616,-0.3274 1.14337,-0.7276 z"
       style="fill:#FDBDBE"
       id="path1-36" /></g></svg>
