<?xml version="1.0" encoding="UTF-8" standalone="no"?>
<!-- Created with Inkscape (http://www.inkscape.org/) -->

<svg
   width="273.91092mm"
   height="411.12115mm"
   viewBox="0 0 273.91092 411.12115"
   version="1.1"
   id="svg1"
   xml:space="preserve"
   xmlns="http://www.w3.org/2000/svg"
   xmlns:svg="http://www.w3.org/2000/svg"><defs
     id="defs1" /><g
     id="layer1"
     transform="translate(-8633.0246,1913.3677)"><g
       id="g4"
       transform="translate(82.900402,2.6077745)"><circle
         style="fill:#ffffff;fill-opacity:1;stroke-width:0.55;stroke-linecap:round"
         id="path33-1-3"
         cx="8688.7227"
         cy="-1860.1777"
         r="55.797733" /><path
         id="path31-06-5"
         style="fill:#87de87;stroke-width:0.55;stroke-linecap:round"
         d="m 8786.5622,-1690.7157 c -24.4598,42.3657 -171.2183,42.3657 -195.6781,0 -15.0535,-26.0734 32.6129,-169.4622 97.839,-169.4622 65.2261,0 112.8926,143.3888 97.8391,169.4622 z" /><path
         id="path37-3-6"
         style="fill:#87de87;stroke-width:0.55;stroke-linecap:round"
         d="m 8680.2677,-1580.8259 c -47.5012,0 -75.5006,30.7463 -88.9857,75.9716 h 191.5955 c -13.4851,-45.2254 -41.4845,-75.9716 -88.9858,-75.9716 -2.3043,0 -4.5732,0.076 -6.812,0.2155 -2.2388,-0.1394 -4.5077,-0.2155 -6.812,-0.2155 z" /><circle
         style="fill:#ffe6d5;fill-opacity:1;stroke-width:0.55;stroke-linecap:round"
         id="path7-2-2"
         cx="8688.7188"
         cy="-1648.0704"
         r="94.75843" /><path
         style="fill:#483737;fill-opacity:1;stroke-width:0.55;stroke-linecap:round"
         d="m 8614.0584,-1718.6644 c 49.1024,10.2953 99.1445,10.2245 150.1072,0 l -19.6448,-16.9717 -46.8479,-13.1355 -51.9497,5.9431 z"
         id="path36-0-9" /><path
         id="path7-9-6-1"
         style="fill:#ffffff;fill-opacity:1;stroke-width:0.66559;stroke-linecap:round"
         d="m 8688.7192,-1760.0976 a 114.67323,114.67323 0 0 0 -110.1374,82.8663 h 21.0628 a 94.75843,94.75843 0 0 1 89.0746,-62.9512 94.75843,94.75843 0 0 1 89.2282,62.9512 h 20.917 a 114.67323,114.67323 0 0 0 -110.1452,-82.8663 z" /><ellipse
         style="fill:#1a1a1a;fill-opacity:1;stroke-width:0.373237;stroke-linecap:round"
         id="path34-1-2"
         cx="8653.8623"
         cy="-1669.3763"
         rx="22.623436"
         ry="23.800817" /><ellipse
         style="fill:#1a1a1a;fill-opacity:1;stroke-width:0.373237;stroke-linecap:round"
         id="path34-0-5-7"
         cx="8720.2959"
         cy="-1669.3763"
         rx="22.623436"
         ry="23.800817" /><path
         id="path35-5-0"
         style="fill:#ffffff;stroke-width:0.55;stroke-linecap:round"
         d="m 8686.4949,-1580.8259 c -36.7997,0 -48.5603,-40.538 -48.5603,-40.538 h 98.2901 c 0,0 -11.8467,40.538 -49.7298,40.538 z" /><path
         style="fill:#ffe6d5;fill-opacity:1;stroke-width:0.287255;stroke-linecap:round"
         d="m 8631.2393,-1629.082 -65.5864,-95.5922 c 0,0 -38.3752,91.564 5.5261,107.94 43.9013,16.3759 60.0603,-12.3478 60.0603,-12.3478 z"
         id="path10-5-9" /><path
         style="fill:#ffe6d5;fill-opacity:1;stroke-width:0.287255;stroke-linecap:round"
         d="m 8742.92,-1630.2765 65.5864,-95.5923 c 0,0 38.3752,91.5641 -5.5261,107.9401 -43.9013,16.3759 -60.0603,-12.3478 -60.0603,-12.3478 z"
         id="path9-2-3" /></g></g></svg>
