<?xml version="1.0" encoding="UTF-8" standalone="no"?>
<!-- Created with Inkscape (http://www.inkscape.org/) -->

<svg
   width="685mm"
   height="685.00006mm"
   viewBox="0 0 685 685.00006"
   version="1.1"
   id="svg1"
   xml:space="preserve"
   inkscape:version="1.3.2 (1:1.3.2+202311252150+091e20ef0f)"
   sodipodi:docname="sitewebperenoel.svg"
   xmlns:inkscape="http://www.inkscape.org/namespaces/inkscape"
   xmlns:sodipodi="http://sodipodi.sourceforge.net/DTD/sodipodi-0.dtd"
   xmlns="http://www.w3.org/2000/svg"
   xmlns:svg="http://www.w3.org/2000/svg"><sodipodi:namedview
     id="namedview1"
     pagecolor="#ffffff"
     bordercolor="#000000"
     borderopacity="0.25"
     inkscape:showpageshadow="2"
     inkscape:pageopacity="0.0"
     inkscape:pagecheckerboard="0"
     inkscape:deskcolor="#d1d1d1"
     inkscape:document-units="mm"
     inkscape:zoom="0.056568542"
     inkscape:cx="26666.765"
     inkscape:cy="-2916.8155"
     inkscape:window-width="1850"
     inkscape:window-height="1016"
     inkscape:window-x="0"
     inkscape:window-y="0"
     inkscape:window-maximized="1"
     inkscape:current-layer="layer1"
     showgrid="false" /><defs
     id="defs1" /><g
     inkscape:label="Calque 1"
     inkscape:groupmode="layer"
     id="layer1"
     transform="translate(-6926.6501,1163.2342)"><g
       id="g8"><rect
         style="fill:#69afa1;fill-opacity:1;stroke-width:23.0626;stroke-linecap:round"
         id="rect6"
         width="685"
         height="685"
         x="6926.6499"
         y="-1163.2341"
         ry="9.7659187" /><g
         id="g1"
         transform="translate(-1303.2354,296.17896)"><circle
           style="fill:#ffffff;fill-opacity:1;stroke-width:0.55;stroke-linecap:round"
           id="path33-1-5"
           cx="8446.4775"
           cy="-1228.5438"
           r="55.797733" /><path
           id="path31-06-3"
           style="fill:#87de87;stroke-width:0.55;stroke-linecap:round"
           inkscape:transform-center-x="5.3597004e-05"
           inkscape:transform-center-y="-28.243678"
           d="m 8544.3163,-1059.0819 c -24.4598,42.3657 -171.2183,42.3657 -195.6781,0 -15.0535,-26.0734 32.6129,-169.4622 97.839,-169.4622 65.2261,0 112.8926,143.3888 97.8391,169.4622 z"
           sodipodi:nodetypes="zzaz" /><path
           id="path37-3-5"
           style="fill:#87de87;stroke-width:0.55;stroke-linecap:round"
           d="m 8438.0218,-949.19207 c -47.5012,0 -75.5006,30.7463 -88.9857,75.9716 h 191.5955 c -13.4851,-45.2254 -41.4845,-75.9716 -88.9858,-75.9716 -2.3043,0 -4.5732,0.076 -6.812,0.2155 -2.2388,-0.1394 -4.5077,-0.2155 -6.812,-0.2155 z" /><circle
           style="fill:#ffe6d5;fill-opacity:1;stroke-width:0.55;stroke-linecap:round"
           id="path7-2-6"
           cx="8446.4736"
           cy="-1016.4366"
           r="94.75843" /><path
           style="fill:#483737;fill-opacity:1;stroke-width:0.55;stroke-linecap:round"
           d="m 8371.8125,-1087.0306 c 49.1024,10.2953 99.1445,10.2245 150.1072,0 l -19.6448,-16.9717 -46.8479,-13.1355 -51.9497,5.9431 z"
           id="path36-0-2"
           sodipodi:nodetypes="cccccc" /><path
           id="path7-9-6-9"
           style="fill:#ffffff;fill-opacity:1;stroke-width:0.66559;stroke-linecap:round"
           d="m 8446.4733,-1128.4638 a 114.67323,114.67323 0 0 0 -110.1374,82.8663 h 21.0628 a 94.75843,94.75843 0 0 1 89.0746,-62.9512 94.75843,94.75843 0 0 1 89.2282,62.9512 h 20.917 a 114.67323,114.67323 0 0 0 -110.1452,-82.8663 z" /><ellipse
           style="fill:#1a1a1a;fill-opacity:1;stroke-width:0.373237;stroke-linecap:round"
           id="path34-1-1"
           cx="8411.6172"
           cy="-1037.7424"
           rx="22.623436"
           ry="23.800817" /><ellipse
           style="fill:#1a1a1a;fill-opacity:1;stroke-width:0.373237;stroke-linecap:round"
           id="path34-0-5-2"
           cx="8478.0498"
           cy="-1037.7424"
           rx="22.623436"
           ry="23.800817" /><path
           id="path35-5-7"
           style="fill:#ffffff;stroke-width:0.55;stroke-linecap:round"
           inkscape:transform-center-x="5.4434305e-05"
           inkscape:transform-center-y="14.186956"
           d="m 8444.249,-949.19207 c -36.7997,0 -48.5603,-40.538 -48.5603,-40.538 h 98.2901 c 0,0 -11.8467,40.538 -49.7298,40.538 z"
           sodipodi:nodetypes="sccs" /><circle
           style="fill:#ffffff;fill-opacity:1;stroke-width:0.55;stroke-linecap:round"
           id="path33-2-4-0"
           cx="8713.8301"
           cy="-1304.808"
           r="55.797733" /><path
           id="path31-0-7-9"
           style="fill:#d20017;fill-opacity:1;stroke-width:0.55;stroke-linecap:round"
           inkscape:transform-center-x="5.3597004e-05"
           inkscape:transform-center-y="-28.243678"
           d="m 8811.6695,-1135.3457 c -24.4598,42.3657 -171.2183,42.3657 -195.6781,0 -15.0535,-26.0734 32.6129,-169.4622 97.839,-169.4622 65.2261,0 112.8926,143.3888 97.8391,169.4622 z"
           sodipodi:nodetypes="zzaz" /><path
           id="path37-2-6-3"
           style="fill:#d20017;fill-opacity:1;stroke-width:0.55;stroke-linecap:round"
           d="m 8705.375,-1025.4561 c -71.1417,0 -116.0678,68.90213 -116.6574,152.23563 h 248.175 c -0.6057,-83.3335 -46.7519,-152.23563 -117.8936,-152.23563 -2.3043,0 -4.5732,0.076 -6.812,0.2155 -2.2388,-0.1394 -4.5077,-0.2155 -6.812,-0.2155 z" /><circle
           style="fill:#ffe6d5;fill-opacity:1;stroke-width:0.55;stroke-linecap:round"
           id="path7-3-5-6"
           cx="8713.8262"
           cy="-1092.6997"
           r="94.75843" /><path
           style="fill:#f9f9f9;fill-opacity:1;stroke-width:0.55;stroke-linecap:round"
           d="m 8639.1657,-1163.2943 c 49.1024,10.2953 99.1445,10.2245 150.1072,0 l -19.6448,-16.9717 -46.8479,-13.1355 -51.9497,5.9431 z"
           id="path36-7-6-0"
           sodipodi:nodetypes="cccccc" /><path
           id="path7-9-5-93-6"
           style="fill:#ffffff;fill-opacity:1;stroke-width:0.66559;stroke-linecap:round"
           d="m 8713.8265,-1204.7275 a 114.67323,114.67323 0 0 0 -110.1374,82.8663 h 21.0628 a 94.75843,94.75843 0 0 1 89.0746,-62.9512 94.75843,94.75843 0 0 1 89.2282,62.9512 h 20.917 a 114.67323,114.67323 0 0 0 -110.1452,-82.8663 z" /><ellipse
           style="fill:#1a1a1a;fill-opacity:1;stroke-width:0.373237;stroke-linecap:round"
           id="path34-2-7-2"
           cx="8678.9697"
           cy="-1114.0056"
           rx="22.623436"
           ry="23.800817" /><ellipse
           style="fill:#1a1a1a;fill-opacity:1;stroke-width:0.373237;stroke-linecap:round"
           id="path34-0-8-4-6"
           cx="8745.4033"
           cy="-1114.0056"
           rx="22.623436"
           ry="23.800817" /><path
           style="fill:#ffe6d5;fill-opacity:1;stroke-width:0.287255;stroke-linecap:round"
           d="m 8388.9934,-997.44817 -65.5864,-95.59223 c 0,0 -38.3752,91.564 5.5261,107.94003 43.9013,16.3759 60.0603,-12.3478 60.0603,-12.3478 z"
           id="path10-5-1" /><path
           style="fill:#ffe6d5;fill-opacity:1;stroke-width:0.287255;stroke-linecap:round"
           d="m 8500.6741,-998.64267 65.5864,-95.59233 c 0,0 38.3752,91.5641 -5.5261,107.94013 -43.9013,16.3759 -60.0603,-12.3478 -60.0603,-12.3478 z"
           id="path9-2-8" /><circle
           style="fill:#ffe6d5;fill-opacity:1;stroke-width:0.389069;stroke-linecap:round"
           id="path38-5-7"
           cx="8808.584"
           cy="-1103.5713"
           r="27.388494" /><circle
           style="fill:#ffe6d5;fill-opacity:1;stroke-width:0.389205;stroke-linecap:round"
           id="path38-1-4-9"
           cx="8619.0674"
           cy="-1103.5713"
           r="27.398052" /><path
           id="path31-0-8-7-2"
           style="fill:#f9f9f9;fill-opacity:1;stroke-width:0.55;stroke-linecap:round"
           inkscape:transform-center-x="5.3597004e-05"
           inkscape:transform-center-y="28.243722"
           d="m 8798.77,-1050.7027 c -24.4598,-42.3657 -145.4273,-42.3657 -169.8871,0 -15.0535,26.0734 21.7569,169.46223 84.9435,169.46223 63.1866,0 99.9971,-143.38883 84.9436,-169.46223 z"
           sodipodi:nodetypes="zzaz" /></g></g></g></svg>
