<?xml version="1.0" encoding="UTF-8" standalone="no"?>
<!-- Created with Inkscape (http://www.inkscape.org/) -->

<svg
   width="248.17503mm"
   height="487.38538mm"
   viewBox="0 0 248.17503 487.38538"
   version="1.1"
   id="svg1"
   xml:space="preserve"
   xmlns="http://www.w3.org/2000/svg"
   xmlns:svg="http://www.w3.org/2000/svg"><defs
     id="defs1" /><g
     id="layer1"
     transform="translate(-9005.6447,1992.2397)"><g
       id="g5"
       transform="translate(-151.74159,203.6204)"><circle
         style="fill:#ffffff;fill-opacity:1;stroke-width:0.55;stroke-linecap:round"
         id="path33-2-4-6"
         cx="9282.499"
         cy="-2140.0623"
         r="55.797733" /><path
         id="path31-0-7-1"
         style="fill:#d20017;fill-opacity:1;stroke-width:0.55;stroke-linecap:round"
         d="m 9380.3384,-1970.5999 c -24.4598,42.3657 -171.2183,42.3657 -195.6781,0 -15.0535,-26.0734 32.6129,-169.4622 97.839,-169.4622 65.2261,0 112.8926,143.3888 97.8391,169.4622 z" /><path
         id="path37-2-6-8"
         style="fill:#d20017;fill-opacity:1;stroke-width:0.55;stroke-linecap:round"
         d="m 9274.0439,-1860.7103 c -71.1417,0 -116.0678,68.9021 -116.6574,152.2356 h 248.175 c -0.6057,-83.3335 -46.7519,-152.2356 -117.8936,-152.2356 -2.3043,0 -4.5732,0.076 -6.812,0.2155 -2.2388,-0.1394 -4.5077,-0.2155 -6.812,-0.2155 z" /><circle
         style="fill:#ffe6d5;fill-opacity:1;stroke-width:0.55;stroke-linecap:round"
         id="path7-3-5-7"
         cx="9282.4951"
         cy="-1927.954"
         r="94.75843" /><path
         style="fill:#f9f9f9;fill-opacity:1;stroke-width:0.55;stroke-linecap:round"
         d="m 9207.8346,-1998.5485 c 49.1024,10.2953 99.1445,10.2245 150.1072,0 l -19.6448,-16.9717 -46.8479,-13.1355 -51.9497,5.9431 z"
         id="path36-7-6-9" /><path
         id="path7-9-5-93-2"
         style="fill:#ffffff;fill-opacity:1;stroke-width:0.66559;stroke-linecap:round"
         d="m 9282.4954,-2039.9817 a 114.67323,114.67323 0 0 0 -110.1374,82.8663 h 21.0628 a 94.75843,94.75843 0 0 1 89.0746,-62.9512 94.75843,94.75843 0 0 1 89.2282,62.9512 h 20.917 a 114.67323,114.67323 0 0 0 -110.1452,-82.8663 z" /><ellipse
         style="fill:#1a1a1a;fill-opacity:1;stroke-width:0.373237;stroke-linecap:round"
         id="path34-2-7-0"
         cx="9247.6387"
         cy="-1949.2599"
         rx="22.623436"
         ry="23.800817" /><ellipse
         style="fill:#1a1a1a;fill-opacity:1;stroke-width:0.373237;stroke-linecap:round"
         id="path34-0-8-4-2"
         cx="9314.0723"
         cy="-1949.2599"
         rx="22.623436"
         ry="23.800817" /><circle
         style="fill:#ffe6d5;fill-opacity:1;stroke-width:0.389069;stroke-linecap:round"
         id="path38-5-3"
         cx="9377.2539"
         cy="-1938.8256"
         r="27.388494" /><circle
         style="fill:#ffe6d5;fill-opacity:1;stroke-width:0.389205;stroke-linecap:round"
         id="path38-1-4-7"
         cx="9187.7373"
         cy="-1938.8256"
         r="27.398052" /><path
         id="path31-0-8-7-5"
         style="fill:#f9f9f9;fill-opacity:1;stroke-width:0.55;stroke-linecap:round"
         d="m 9367.4389,-1885.9569 c -24.4598,-42.3657 -145.4273,-42.3657 -169.8871,0 -15.0535,26.0734 21.7569,169.4622 84.9435,169.4622 63.1866,0 99.9971,-143.3888 84.9436,-169.4622 z" /></g></g></svg>
